<?xml version="1.0" encoding="UTF-8" standalone="no"?>
<svg width="400" height="120" viewBox="0 0 400 120" fill="none" xmlns="http://www.w3.org/2000/svg">
  <rect width="400" height="120" rx="8" fill="#1e1e1e" stroke="#444444" stroke-width="1"/>
  <rect x="10" y="10" width="380" height="40" rx="8" fill="#252525"/>
  <g transform="translate(20, 30)">
    <path d="M7 15L10 12L7 9M13 15H17M7.8 21H16.2C17.8802 21 18.7202 21 19.362 20.673C19.9265 20.3854 20.3854 19.9265 20.673 19.362C21 18.7202 21 17.8802 21 16.2V7.8C21 6.11984 21 5.27976 20.673 4.63803C20.3854 4.07354 19.9265 3.6146 19.362 3.32698C18.7202 3 17.8802 3 16.2 3H7.8C6.11984 3 5.27976 3 4.63803 3.32698C4.07354 3.6146 3.6146 4.07354 3.32698 4.63803C3 5.27976 3 6.11984 3 7.8V16.2C3 17.8802 3 18.7202 3.32698 19.362C3.6146 19.9265 4.07354 20.3854 4.63803 20.673C5.27976 21 6.11984 21 7.8 21Z" stroke="#006adc" stroke-width="2" stroke-linecap="round" stroke-linejoin="round" transform="scale(0.8)"/>
  </g>
  <text x="45" y="30" font-family="monospace" font-size="14" fill="#8e8e8e">Terminal</text>
  <rect x="350" y="15" width="30" height="30" rx="4" fill="transparent" stroke="#444444" stroke-width="1"/>
  <g transform="translate(355, 20)">
    <path d="M9 5h-2a2 2 0 0 0 -2 2v12a2 2 0 0 0 2 2h10a2 2 0 0 0 2 -2v-12a2 2 0 0 0 -2 -2h-2 M9 3m0 2a2 2 0 0 1 2 -2h2a2 2 0 0 1 2 2v0a2 2 0 0 1 -2 2h-2a2 2 0 0 1 -2 -2z" stroke="#8e8e8e" stroke-width="2" stroke-linecap="round" stroke-linejoin="round" transform="scale(0.8)"/>
  </g>
  <rect x="10" y="50" width="380" height="60" rx="8" fill="#000000"/>
  <text x="20" y="80" font-family="monospace" font-size="16" fill="#e34ba9">- npm install</text>
</svg>
